<svg width="92" height="52" viewBox="0 0 92 52" fill="none" xmlns="http://www.w3.org/2000/svg">
<g filter="url(#filter0_dii_15_2082)">
<rect x="10" y="9" width="72" height="32" rx="5" fill="url(#paint0_linear_15_2082)"/>
<rect x="10.5" y="9.5" width="71" height="31" rx="4.5" stroke="url(#paint1_linear_15_2082)"/>
</g>
<path d="M17.7794 24.072C17.7794 23.1013 17.9894 22.238 18.4094 21.482C18.8294 20.7167 19.4127 20.124 20.1594 19.704C20.9154 19.2747 21.7694 19.06 22.7214 19.06C23.888 19.06 24.8867 19.368 25.7174 19.984C26.548 20.6 27.1034 21.44 27.3834 22.504H24.7514C24.5554 22.0933 24.2754 21.7807 23.9114 21.566C23.5567 21.3513 23.1507 21.244 22.6934 21.244C21.956 21.244 21.3587 21.5007 20.9014 22.014C20.444 22.5273 20.2154 23.2133 20.2154 24.072C20.2154 24.9307 20.444 25.6167 20.9014 26.13C21.3587 26.6433 21.956 26.9 22.6934 26.9C23.1507 26.9 23.5567 26.7927 23.9114 26.578C24.2754 26.3633 24.5554 26.0507 24.7514 25.64H27.3834C27.1034 26.704 26.548 27.544 25.7174 28.16C24.8867 28.7667 23.888 29.07 22.7214 29.07C21.7694 29.07 20.9154 28.86 20.1594 28.44C19.4127 28.0107 18.8294 27.418 18.4094 26.662C17.9894 25.906 17.7794 25.0427 17.7794 24.072ZM32.4054 29.112C31.6401 29.112 30.9494 28.9487 30.3334 28.622C29.7268 28.2953 29.2461 27.8287 28.8914 27.222C28.5461 26.6153 28.3734 25.906 28.3734 25.094C28.3734 24.2913 28.5508 23.5867 28.9054 22.98C29.2601 22.364 29.7454 21.8927 30.3614 21.566C30.9774 21.2393 31.6681 21.076 32.4334 21.076C33.1988 21.076 33.8894 21.2393 34.5054 21.566C35.1214 21.8927 35.6068 22.364 35.9614 22.98C36.3161 23.5867 36.4934 24.2913 36.4934 25.094C36.4934 25.8967 36.3114 26.606 35.9474 27.222C35.5928 27.8287 35.1028 28.2953 34.4774 28.622C33.8614 28.9487 33.1708 29.112 32.4054 29.112ZM32.4054 27.04C32.8628 27.04 33.2501 26.872 33.5674 26.536C33.8941 26.2 34.0574 25.7193 34.0574 25.094C34.0574 24.4687 33.8988 23.988 33.5814 23.652C33.2734 23.316 32.8908 23.148 32.4334 23.148C31.9668 23.148 31.5794 23.316 31.2714 23.652C30.9634 23.9787 30.8094 24.4593 30.8094 25.094C30.8094 25.7193 30.9588 26.2 31.2574 26.536C31.5654 26.872 31.9481 27.04 32.4054 27.04ZM42.5235 21.104C43.4382 21.104 44.1662 21.4027 44.7075 22C45.2582 22.588 45.5335 23.4 45.5335 24.436V29H43.1535V24.758C43.1535 24.2353 43.0182 23.8293 42.7475 23.54C42.4768 23.2507 42.1128 23.106 41.6555 23.106C41.1982 23.106 40.8342 23.2507 40.5635 23.54C40.2928 23.8293 40.1575 24.2353 40.1575 24.758V29H37.7635V21.188H40.1575V22.224C40.4002 21.8787 40.7268 21.608 41.1375 21.412C41.5482 21.2067 42.0102 21.104 42.5235 21.104ZM51.5511 26.97V29H50.3331C49.4651 29 48.7884 28.79 48.3031 28.37C47.8178 27.9407 47.5751 27.2453 47.5751 26.284V23.176H46.6231V21.188H47.5751V19.284H49.9691V21.188H51.5371V23.176H49.9691V26.312C49.9691 26.5453 50.0251 26.7133 50.1371 26.816C50.2491 26.9187 50.4358 26.97 50.6971 26.97H51.5511ZM52.4086 25.08C52.4086 24.2773 52.5579 23.5727 52.8566 22.966C53.1646 22.3593 53.5799 21.8927 54.1026 21.566C54.6253 21.2393 55.2086 21.076 55.8526 21.076C56.4033 21.076 56.8839 21.188 57.2946 21.412C57.7146 21.636 58.0366 21.93 58.2606 22.294V21.188H60.6546V29H58.2606V27.894C58.0273 28.258 57.7006 28.552 57.2806 28.776C56.8699 29 56.3893 29.112 55.8386 29.112C55.2039 29.112 54.6253 28.9487 54.1026 28.622C53.5799 28.286 53.1646 27.8147 52.8566 27.208C52.5579 26.592 52.4086 25.8827 52.4086 25.08ZM58.2606 25.094C58.2606 24.4967 58.0926 24.0253 57.7566 23.68C57.4299 23.3347 57.0286 23.162 56.5526 23.162C56.0766 23.162 55.6706 23.3347 55.3346 23.68C55.0079 24.016 54.8446 24.4827 54.8446 25.08C54.8446 25.6773 55.0079 26.1533 55.3346 26.508C55.6706 26.8533 56.0766 27.026 56.5526 27.026C57.0286 27.026 57.4299 26.8533 57.7566 26.508C58.0926 26.1627 58.2606 25.6913 58.2606 25.094ZM61.9106 25.094C61.9106 24.282 62.0739 23.5727 62.4006 22.966C62.7366 22.3593 63.1986 21.8927 63.7866 21.566C64.3839 21.2393 65.0652 21.076 65.8306 21.076C66.8106 21.076 67.6272 21.3327 68.2806 21.846C68.9432 22.3593 69.3772 23.0827 69.5826 24.016H67.0346C66.8199 23.4187 66.4046 23.12 65.7886 23.12C65.3499 23.12 64.9999 23.2927 64.7386 23.638C64.4772 23.974 64.3466 24.4593 64.3466 25.094C64.3466 25.7287 64.4772 26.2187 64.7386 26.564C64.9999 26.9 65.3499 27.068 65.7886 27.068C66.4046 27.068 66.8199 26.7693 67.0346 26.172H69.5826C69.3772 27.0867 68.9432 27.8053 68.2806 28.328C67.6179 28.8507 66.8012 29.112 65.8306 29.112C65.0652 29.112 64.3839 28.9487 63.7866 28.622C63.1986 28.2953 62.7366 27.8287 62.4006 27.222C62.0739 26.6153 61.9106 25.906 61.9106 25.094ZM75.2171 26.97V29H73.9991C73.1311 29 72.4545 28.79 71.9691 28.37C71.4838 27.9407 71.2411 27.2453 71.2411 26.284V23.176H70.2891V21.188H71.2411V19.284H73.6351V21.188H75.2031V23.176H73.6351V26.312C73.6351 26.5453 73.6911 26.7133 73.8031 26.816C73.9151 26.9187 74.1018 26.97 74.3631 26.97H75.2171Z" fill="white"/>
<defs>
<filter id="filter0_dii_15_2082" x="0" y="0" width="92" height="52" filterUnits="userSpaceOnUse" color-interpolation-filters="sRGB">
<feFlood flood-opacity="0" result="BackgroundImageFix"/>
<feColorMatrix in="SourceAlpha" type="matrix" values="0 0 0 0 0 0 0 0 0 0 0 0 0 0 0 0 0 0 127 0" result="hardAlpha"/>
<feOffset dy="1"/>
<feGaussianBlur stdDeviation="5"/>
<feComposite in2="hardAlpha" operator="out"/>
<feColorMatrix type="matrix" values="0 0 0 0 0.808991 0 0 0 0 0.304583 0 0 0 0 0.85 0 0 0 0.59 0"/>
<feBlend mode="normal" in2="BackgroundImageFix" result="effect1_dropShadow_15_2082"/>
<feBlend mode="normal" in="SourceGraphic" in2="effect1_dropShadow_15_2082" result="shape"/>
<feColorMatrix in="SourceAlpha" type="matrix" values="0 0 0 0 0 0 0 0 0 0 0 0 0 0 0 0 0 0 127 0" result="hardAlpha"/>
<feOffset dy="1"/>
<feGaussianBlur stdDeviation="2.5"/>
<feComposite in2="hardAlpha" operator="arithmetic" k2="-1" k3="1"/>
<feColorMatrix type="matrix" values="0 0 0 0 0.777656 0 0 0 0 0.316823 0 0 0 0 0.9875 0 0 0 1 0"/>
<feBlend mode="normal" in2="shape" result="effect2_innerShadow_15_2082"/>
<feColorMatrix in="SourceAlpha" type="matrix" values="0 0 0 0 0 0 0 0 0 0 0 0 0 0 0 0 0 0 127 0" result="hardAlpha"/>
<feOffset dy="-1"/>
<feGaussianBlur stdDeviation="2"/>
<feComposite in2="hardAlpha" operator="arithmetic" k2="-1" k3="1"/>
<feColorMatrix type="matrix" values="0 0 0 0 0.882353 0 0 0 0 0.54902 0 0 0 0 1 0 0 0 1 0"/>
<feBlend mode="normal" in2="effect2_innerShadow_15_2082" result="effect3_innerShadow_15_2082"/>
</filter>
<linearGradient id="paint0_linear_15_2082" x1="10" y1="6.24138" x2="82.8603" y2="33.5939" gradientUnits="userSpaceOnUse">
<stop stop-color="#AE46ED"/>
<stop offset="1" stop-color="#FF5BE5"/>
</linearGradient>
<linearGradient id="paint1_linear_15_2082" x1="46" y1="9" x2="46" y2="41" gradientUnits="userSpaceOnUse">
<stop stop-color="#E18CFF" stop-opacity="0.63"/>
<stop offset="1" stop-color="#CC51D6" stop-opacity="0.66"/>
</linearGradient>
</defs>
</svg>
