<svg width="407" height="673" viewBox="0 0 407 673" fill="none" xmlns="http://www.w3.org/2000/svg">
<path d="M209.172 672.089H310.937C315.217 672.089 318.686 668.447 318.687 663.954V613.89C318.687 609.397 315.217 605.755 310.938 605.755H209.172C204.893 605.755 201.422 609.397 201.422 613.89V663.954C201.422 668.447 204.891 672.089 209.172 672.089Z" fill="url(#paint0_linear_73_664)"/>
<path d="M209.172 672.089H310.937C315.217 672.089 318.686 668.447 318.687 663.954V613.89C318.687 609.397 315.217 605.755 310.938 605.755H209.172C204.893 605.755 201.422 609.397 201.422 613.89V663.954C201.422 668.447 204.891 672.089 209.172 672.089Z" fill="url(#paint1_radial_73_664)"/>
<path d="M209.172 672.089H310.937C315.217 672.089 318.686 668.447 318.687 663.954V613.89C318.687 609.397 315.217 605.755 310.938 605.755H209.172C204.893 605.755 201.422 609.397 201.422 613.89V663.954C201.422 668.447 204.891 672.089 209.172 672.089Z" fill="url(#paint2_linear_73_664)"/>
<path d="M259.562 593.227H312.509C315.651 593.227 318.483 591.235 319.676 588.184L406.355 366.77C407.484 363.886 406.947 360.579 404.966 358.258C386.465 336.574 295.09 225.399 289.665 138.605C289.389 134.203 285.845 130.828 281.645 130.995L279.688 131.074C275.525 131.24 272.233 134.831 272.233 139.203L272.232 334.098C272.232 337.001 273.698 339.698 276.102 341.133C283.754 345.701 288.771 353.351 288.771 362.017C288.771 376.008 275.694 387.351 259.563 387.35C243.432 387.35 230.354 376.007 230.354 362.016C230.354 353.35 235.372 345.701 243.024 341.133C245.427 339.698 246.894 337 246.894 334.097L246.894 139.821C246.894 135.207 243.243 131.517 238.85 131.692L236.929 131.769C232.956 131.927 229.741 135.213 229.498 139.378C224.459 226.146 132.817 336.639 114.194 358.255C112.193 360.578 111.646 363.899 112.78 366.796L199.448 588.184C200.642 591.235 203.474 593.227 206.615 593.227H259.562Z" fill="url(#paint3_linear_73_664)"/>
<path d="M259.562 593.227H312.509C315.651 593.227 318.483 591.235 319.676 588.184L406.355 366.77C407.484 363.886 406.947 360.579 404.966 358.258C386.465 336.574 295.09 225.399 289.665 138.605C289.389 134.203 285.845 130.828 281.645 130.995L279.688 131.074C275.525 131.24 272.233 134.831 272.233 139.203L272.232 334.098C272.232 337.001 273.698 339.698 276.102 341.133C283.754 345.701 288.771 353.351 288.771 362.017C288.771 376.008 275.694 387.351 259.563 387.35C243.432 387.35 230.354 376.007 230.354 362.016C230.354 353.35 235.372 345.701 243.024 341.133C245.427 339.698 246.894 337 246.894 334.097L246.894 139.821C246.894 135.207 243.243 131.517 238.85 131.692L236.929 131.769C232.956 131.927 229.741 135.213 229.498 139.378C224.459 226.146 132.817 336.639 114.194 358.255C112.193 360.578 111.646 363.899 112.78 366.796L199.448 588.184C200.642 591.235 203.474 593.227 206.615 593.227H259.562Z" fill="url(#paint4_radial_73_664)"/>
<path d="M259.562 593.227H312.509C315.651 593.227 318.483 591.235 319.676 588.184L406.355 366.77C407.484 363.886 406.947 360.579 404.966 358.258C386.465 336.574 295.09 225.399 289.665 138.605C289.389 134.203 285.845 130.828 281.645 130.995L279.688 131.074C275.525 131.24 272.233 134.831 272.233 139.203L272.232 334.098C272.232 337.001 273.698 339.698 276.102 341.133C283.754 345.701 288.771 353.351 288.771 362.017C288.771 376.008 275.694 387.351 259.563 387.35C243.432 387.35 230.354 376.007 230.354 362.016C230.354 353.35 235.372 345.701 243.024 341.133C245.427 339.698 246.894 337 246.894 334.097L246.894 139.821C246.894 135.207 243.243 131.517 238.85 131.692L236.929 131.769C232.956 131.927 229.741 135.213 229.498 139.378C224.459 226.146 132.817 336.639 114.194 358.255C112.193 360.578 111.646 363.899 112.78 366.796L199.448 588.184C200.642 591.235 203.474 593.227 206.615 593.227H259.562Z" fill="url(#paint5_linear_73_664)"/>
<path d="M363.569 8.22319L361.311 14.7804C277.871 -14.3527 186.223 0.0372844 114.578 53.9197C113.471 54.751 112.388 55.6057 111.296 56.4522L109.343 53.1932L96.0073 61.9864L98.8238 66.6862C48.075 110.895 14.5536 172.071 3.7164 241.023C-8.04211 315.85 8.31581 390.997 49.75 452.983L45.9756 456.451L56.356 468.879L68.2037 457.99L57.8233 445.563L52.2874 450.651C-28.6621 329.165 -6.39221 163.386 100.628 69.6985L104.39 75.9751L117.726 67.1819L113.086 59.4388C114.231 58.5494 115.369 57.6524 116.531 56.7781C187.278 3.56784 277.773 -10.6532 360.171 18.0876L358.217 23.7629L373.031 29.3771L378.384 13.8381L363.569 8.22319Z" fill="url(#paint6_linear_73_664)"/>
<path d="M363.569 8.22319L361.311 14.7804C277.871 -14.3527 186.223 0.0372844 114.578 53.9197C113.471 54.751 112.388 55.6057 111.296 56.4522L109.343 53.1932L96.0073 61.9864L98.8238 66.6862C48.075 110.895 14.5536 172.071 3.7164 241.023C-8.04211 315.85 8.31581 390.997 49.75 452.983L45.9756 456.451L56.356 468.879L68.2037 457.99L57.8233 445.563L52.2874 450.651C-28.6621 329.165 -6.39221 163.386 100.628 69.6985L104.39 75.9751L117.726 67.1819L113.086 59.4388C114.231 58.5494 115.369 57.6524 116.531 56.7781C187.278 3.56784 277.773 -10.6532 360.171 18.0876L358.217 23.7629L373.031 29.3771L378.384 13.8381L363.569 8.22319Z" fill="url(#paint7_radial_73_664)"/>
<path d="M363.569 8.22319L361.311 14.7804C277.871 -14.3527 186.223 0.0372844 114.578 53.9197C113.471 54.751 112.388 55.6057 111.296 56.4522L109.343 53.1932L96.0073 61.9864L98.8238 66.6862C48.075 110.895 14.5536 172.071 3.7164 241.023C-8.04211 315.85 8.31581 390.997 49.75 452.983L45.9756 456.451L56.356 468.879L68.2037 457.99L57.8233 445.563L52.2874 450.651C-28.6621 329.165 -6.39221 163.386 100.628 69.6985L104.39 75.9751L117.726 67.1819L113.086 59.4388C114.231 58.5494 115.369 57.6524 116.531 56.7781C187.278 3.56784 277.773 -10.6532 360.171 18.0876L358.217 23.7629L373.031 29.3771L378.384 13.8381L363.569 8.22319Z" fill="url(#paint8_linear_73_664)"/>
<defs>
<linearGradient id="paint0_linear_73_664" x1="348.223" y1="601.85" x2="319.069" y2="700.825" gradientUnits="userSpaceOnUse">
<stop stop-color="#CE0C8B"/>
<stop offset="1" stop-color="#550A63"/>
</linearGradient>
<radialGradient id="paint1_radial_73_664" cx="0" cy="0" r="1" gradientUnits="userSpaceOnUse" gradientTransform="translate(208.997 609.986) rotate(32.0309) scale(114.838 218.588)">
<stop stop-color="#E62CF5"/>
<stop offset="0.461458" stop-color="#6865E6"/>
<stop offset="1" stop-color="#E18CFF"/>
</radialGradient>
<linearGradient id="paint2_linear_73_664" x1="168" y1="575.5" x2="358.502" y2="634.569" gradientUnits="userSpaceOnUse">
<stop stop-color="#005330"/>
<stop offset="0.492708" stop-color="#82FDCB"/>
<stop offset="1" stop-color="#06693F"/>
<stop offset="1" stop-color="#036D41"/>
</linearGradient>
<linearGradient id="paint3_linear_73_664" x1="481.178" y1="103.777" x2="113.971" y2="553.434" gradientUnits="userSpaceOnUse">
<stop stop-color="#CE0C8B"/>
<stop offset="1" stop-color="#550A63"/>
</linearGradient>
<radialGradient id="paint4_radial_73_664" cx="0" cy="0" r="1" gradientUnits="userSpaceOnUse" gradientTransform="translate(131.237 160.474) rotate(60.0344) scale(489.912 897.422)">
<stop stop-color="#E62CF5"/>
<stop offset="0.461458" stop-color="#6865E6"/>
<stop offset="1" stop-color="#E18CFF"/>
</radialGradient>
<linearGradient id="paint5_linear_73_664" x1="130.5" y1="138.5" x2="609.309" y2="259.605" gradientUnits="userSpaceOnUse">
<stop stop-color="#005330"/>
<stop offset="0.492708" stop-color="#82FDCB"/>
<stop offset="1" stop-color="#06693F"/>
<stop offset="1" stop-color="#036D41"/>
</linearGradient>
<linearGradient id="paint6_linear_73_664" x1="438.438" y1="-15.7099" x2="47.3464" y2="618.024" gradientUnits="userSpaceOnUse">
<stop stop-color="#FF00F5"/>
<stop offset="1" stop-color="#FC00F2" stop-opacity="0"/>
</linearGradient>
<radialGradient id="paint7_radial_73_664" cx="0" cy="0" r="1" gradientUnits="userSpaceOnUse" gradientTransform="translate(24.4431 29.9079) rotate(49.8562) scale(540.802 1048.85)">
<stop stop-color="#E62CF5"/>
<stop offset="0.461458" stop-color="#6865E6"/>
<stop offset="1" stop-color="#E18CFF"/>
</radialGradient>
<linearGradient id="paint8_linear_73_664" x1="525.5" y1="-91.3537" x2="327.559" y2="624.037" gradientUnits="userSpaceOnUse">
<stop stop-color="#82FDCB"/>
<stop offset="0.51875" stop-color="#067747"/>
<stop offset="0.9999" stop-color="#12A869"/>
<stop offset="1" stop-color="#036D41"/>
</linearGradient>
</defs>
</svg>
