<svg width="407" height="673" viewBox="0 0 407 673" fill="none" xmlns="http://www.w3.org/2000/svg">
<path d="M209.171 672.089H310.937C315.216 672.089 318.686 668.447 318.687 663.954V613.889C318.687 609.397 315.217 605.755 310.938 605.755H209.172C204.893 605.755 201.422 609.397 201.422 613.889V663.954C201.422 668.447 204.891 672.089 209.171 672.089Z" fill="url(#paint0_linear_5_78)"/>
<path d="M209.171 672.089H310.937C315.216 672.089 318.686 668.447 318.687 663.954V613.889C318.687 609.397 315.217 605.755 310.938 605.755H209.172C204.893 605.755 201.422 609.397 201.422 613.889V663.954C201.422 668.447 204.891 672.089 209.171 672.089Z" fill="url(#paint1_radial_5_78)"/>
<path d="M259.562 593.227H312.509C315.651 593.227 318.483 591.235 319.676 588.184L406.355 366.77C407.484 363.886 406.947 360.579 404.966 358.258C386.465 336.574 295.09 225.399 289.665 138.605C289.389 134.203 285.845 130.828 281.645 130.995L279.688 131.074C275.525 131.24 272.233 134.831 272.233 139.203L272.232 334.098C272.232 337.001 273.698 339.698 276.102 341.133C283.754 345.701 288.771 353.351 288.771 362.017C288.771 376.008 275.694 387.35 259.563 387.35C243.432 387.35 230.354 376.007 230.354 362.016C230.354 353.35 235.372 345.7 243.024 341.132C245.427 339.698 246.894 337 246.894 334.097L246.894 139.821C246.894 135.207 243.243 131.517 238.85 131.692L236.929 131.769C232.956 131.927 229.741 135.213 229.498 139.378C224.459 226.146 132.817 336.639 114.194 358.255C112.193 360.578 111.646 363.899 112.78 366.796L199.448 588.184C200.642 591.235 203.474 593.227 206.615 593.227H259.562Z" fill="url(#paint2_linear_5_78)"/>
<path d="M259.562 593.227H312.509C315.651 593.227 318.483 591.235 319.676 588.184L406.355 366.77C407.484 363.886 406.947 360.579 404.966 358.258C386.465 336.574 295.09 225.399 289.665 138.605C289.389 134.203 285.845 130.828 281.645 130.995L279.688 131.074C275.525 131.24 272.233 134.831 272.233 139.203L272.232 334.098C272.232 337.001 273.698 339.698 276.102 341.133C283.754 345.701 288.771 353.351 288.771 362.017C288.771 376.008 275.694 387.35 259.563 387.35C243.432 387.35 230.354 376.007 230.354 362.016C230.354 353.35 235.372 345.7 243.024 341.132C245.427 339.698 246.894 337 246.894 334.097L246.894 139.821C246.894 135.207 243.243 131.517 238.85 131.692L236.929 131.769C232.956 131.927 229.741 135.213 229.498 139.378C224.459 226.146 132.817 336.639 114.194 358.255C112.193 360.578 111.646 363.899 112.78 366.796L199.448 588.184C200.642 591.235 203.474 593.227 206.615 593.227H259.562Z" fill="url(#paint3_radial_5_78)"/>
<path d="M363.569 8.57692L361.311 15.1341C277.871 -13.999 186.223 0.391014 114.578 54.2734C113.471 55.1047 112.388 55.9595 111.296 56.8059L109.343 53.5469L96.0073 62.3401L98.8238 67.04C48.075 111.249 14.5536 172.425 3.7164 241.377C-8.04211 316.204 8.31581 391.351 49.75 453.336L45.9756 456.805L56.356 469.232L68.2037 458.344L57.8233 445.917L52.2874 451.005C-28.6621 329.518 -6.39221 163.739 100.628 70.0522L104.39 76.3288L117.726 67.5356L113.086 59.7925C114.231 58.9031 115.369 58.0061 116.531 57.1318C187.278 3.92157 277.773 -10.2995 360.171 18.4413L358.217 24.1166L373.031 29.7308L378.384 14.1918L363.569 8.57692Z" fill="url(#paint4_linear_5_78)"/>
<path d="M363.569 8.57692L361.311 15.1341C277.871 -13.999 186.223 0.391014 114.578 54.2734C113.471 55.1047 112.388 55.9595 111.296 56.8059L109.343 53.5469L96.0073 62.3401L98.8238 67.04C48.075 111.249 14.5536 172.425 3.7164 241.377C-8.04211 316.204 8.31581 391.351 49.75 453.336L45.9756 456.805L56.356 469.232L68.2037 458.344L57.8233 445.917L52.2874 451.005C-28.6621 329.518 -6.39221 163.739 100.628 70.0522L104.39 76.3288L117.726 67.5356L113.086 59.7925C114.231 58.9031 115.369 58.0061 116.531 57.1318C187.278 3.92157 277.773 -10.2995 360.171 18.4413L358.217 24.1166L373.031 29.7308L378.384 14.1918L363.569 8.57692Z" fill="url(#paint5_radial_5_78)"/>
<defs>
<linearGradient id="paint0_linear_5_78" x1="348.223" y1="601.85" x2="319.069" y2="700.825" gradientUnits="userSpaceOnUse">
<stop stop-color="#CE0C8B"/>
<stop offset="1" stop-color="#550A63"/>
</linearGradient>
<radialGradient id="paint1_radial_5_78" cx="0" cy="0" r="1" gradientUnits="userSpaceOnUse" gradientTransform="translate(208.997 609.986) rotate(32.0309) scale(114.838 218.588)">
<stop stop-color="#E62CF5"/>
<stop offset="0.461458" stop-color="#6865E6"/>
<stop offset="1" stop-color="#E18CFF"/>
</radialGradient>
<linearGradient id="paint2_linear_5_78" x1="481.178" y1="103.777" x2="113.971" y2="553.434" gradientUnits="userSpaceOnUse">
<stop stop-color="#CE0C8B"/>
<stop offset="1" stop-color="#550A63"/>
</linearGradient>
<radialGradient id="paint3_radial_5_78" cx="0" cy="0" r="1" gradientUnits="userSpaceOnUse" gradientTransform="translate(131.237 160.474) rotate(60.0344) scale(489.912 897.422)">
<stop stop-color="#E62CF5"/>
<stop offset="0.461458" stop-color="#6865E6"/>
<stop offset="1" stop-color="#E18CFF"/>
</radialGradient>
<linearGradient id="paint4_linear_5_78" x1="438.438" y1="-15.3562" x2="47.3464" y2="618.378" gradientUnits="userSpaceOnUse">
<stop stop-color="#FF00F5"/>
<stop offset="1" stop-color="#FC00F2" stop-opacity="0"/>
</linearGradient>
<radialGradient id="paint5_radial_5_78" cx="0" cy="0" r="1" gradientUnits="userSpaceOnUse" gradientTransform="translate(24.4431 30.2616) rotate(49.8562) scale(540.802 1048.85)">
<stop stop-color="#E62CF5"/>
<stop offset="0.461458" stop-color="#6865E6"/>
<stop offset="1" stop-color="#E18CFF"/>
</radialGradient>
</defs>
</svg>
