<svg width="32" height="32" viewBox="0 0 32 32" fill="none" xmlns="http://www.w3.org/2000/svg">
<path d="M2.66667 18.6667C2.66667 21.0599 4.60676 23 7 23H7.99895L8 26.6665C8 27.0261 8.11648 27.3763 8.33202 27.6645C8.88334 28.4016 9.9278 28.5523 10.6649 28.0009L13.4985 25.8811L14.0265 23.7691C14.1219 23.3881 14.262 23.0216 14.4429 22.6771L9.99981 26.0008L9.99839 21H7C5.71133 21 4.66667 19.9553 4.66667 18.6667V7.33333C4.66667 6.04467 5.71133 5 7 5H25C26.2887 5 27.3333 6.04467 27.3333 7.33333V12.4595C28.0633 12.6384 28.7561 13.0072 29.3333 13.5661V7.33333C29.3333 4.94009 27.3932 3 25 3H7C4.60676 3 2.66667 4.94009 2.66667 7.33333V18.6667ZM24.1305 14.5593L16.2607 22.4292C15.8017 22.888 15.4763 23.4629 15.3189 24.0925L14.7087 26.5335C14.4433 27.5949 15.4048 28.5565 16.4663 28.2911L18.9072 27.6808C19.5368 27.5235 20.1117 27.198 20.5705 26.7391L28.4404 18.8692C29.6307 17.6791 29.6307 15.7495 28.4404 14.5593C27.2503 13.3691 25.3207 13.3691 24.1305 14.5593Z" fill="white" fill-opacity="0.68"/>
</svg>
