<svg width="175" height="18" viewBox="0 0 175 18" fill="none" xmlns="http://www.w3.org/2000/svg">
<path d="M13.3735 17.24C12.5255 17.24 11.7815 16.992 11.1415 16.496C10.5175 15.984 9.82153 15.072 9.05353 13.76L6.65353 9.68H4.97353V17H2.81353V4.04C2.81353 3.224 2.70153 2.624 2.47753 2.24C2.25353 1.84 1.80553 1.64 1.13353 1.64H0.653531V1.16H6.89353C8.41353 1.16 9.78953 1.464 11.0215 2.072C12.2695 2.664 12.8935 3.8 12.8935 5.48C12.8935 7.608 11.6135 8.968 9.05353 9.56L11.5735 13.76C12.1655 14.752 12.6935 15.448 13.1575 15.848C13.6375 16.232 14.1895 16.456 14.8135 16.52V17C14.6695 17.064 14.4615 17.12 14.1895 17.168C13.9335 17.216 13.6615 17.24 13.3735 17.24ZM6.77353 8.84C7.26953 8.84 7.80553 8.72 8.38153 8.48C8.97353 8.24 9.46953 7.864 9.86953 7.352C10.2855 6.84 10.4935 6.216 10.4935 5.48C10.4935 4.696 10.2855 4.048 9.86953 3.536C9.46953 3.008 8.97353 2.624 8.38153 2.384C7.80553 2.128 7.26953 2 6.77353 2C6.21353 2 5.61353 2.08 4.97353 2.24V8.6C5.61353 8.76 6.21353 8.84 6.77353 8.84ZM29.471 17.12C28.703 17.12 27.943 16.912 27.191 16.496C26.439 16.064 25.839 15.232 25.391 14L24.791 12.44H18.071L16.151 17H15.071L21.791 1.16H22.511L27.791 14C28.191 14.928 28.567 15.568 28.919 15.92C29.271 16.256 29.775 16.456 30.431 16.52V17C30.143 17.08 29.823 17.12 29.471 17.12ZM24.311 11.48L21.431 4.52L18.431 11.48H24.311ZM32.3213 4.04C32.3213 3.224 32.2093 2.624 31.9853 2.24C31.7613 1.84 31.3133 1.64 30.6413 1.64H30.1613V1.16H36.4493C39.5533 1.16 41.8973 1.848 43.4813 3.224C45.0813 4.6 45.8813 6.52 45.8813 8.984C45.8813 10.568 45.5453 11.968 44.8733 13.184C44.2013 14.384 43.2013 15.32 41.8733 15.992C40.5613 16.664 38.9613 17 37.0733 17H32.3213V4.04ZM37.0013 16.16C38.1853 16.16 39.2493 15.872 40.1933 15.296C41.1533 14.704 41.9053 13.88 42.4493 12.824C42.9933 11.752 43.2653 10.504 43.2653 9.08C43.2653 7.688 42.9933 6.456 42.4493 5.384C41.9213 4.312 41.1773 3.48 40.2173 2.888C39.2573 2.296 38.1693 2 36.9533 2C36.1853 2 35.3853 2.128 34.5533 2.384V15.848C35.4493 16.056 36.2653 16.16 37.0013 16.16ZM51.2296 17C50.6376 17 50.1896 16.928 49.8856 16.784C49.5976 16.624 49.3896 16.344 49.2616 15.944C49.1336 15.544 49.0696 14.936 49.0696 14.12V1.16H51.2296V14.12C51.2296 14.936 51.3416 15.544 51.5656 15.944C51.7896 16.328 52.2376 16.52 52.9096 16.52H53.3896V17H51.2296ZM68.5413 17.12C67.7733 17.12 67.0133 16.912 66.2613 16.496C65.5093 16.064 64.9093 15.232 64.4613 14L63.8613 12.44H57.1413L55.2213 17H54.1413L60.8613 1.16H61.5813L66.8613 14C67.2613 14.928 67.6373 15.568 67.9893 15.92C68.3413 16.256 68.8453 16.456 69.5013 16.52V17C69.2133 17.08 68.8933 17.12 68.5413 17.12ZM63.3813 11.48L60.5013 4.52L57.5013 11.48H63.3813ZM72.4477 17H71.4877V4.04C71.4877 3.272 71.3197 2.68 70.9837 2.264C70.6637 1.848 70.1117 1.64 69.3277 1.64H69.0877V1.16H70.6477C71.3837 1.16 72.0077 1.28 72.5197 1.52C73.0317 1.76 73.4877 2.12 73.8877 2.6L82.2877 13.04V1.16H83.2477V17.24H82.7677L72.4477 4.4V17ZM89.2613 2.12C87.2613 2.12 86.2613 3.04 86.2613 4.88H85.7813V3.08C85.7813 1.8 86.4613 1.16 87.8213 1.16H98.9813V2.12H93.5813V17H91.4213V2.12H89.2613ZM107.501 17.48C105.933 17.48 104.525 17.096 103.277 16.328C102.045 15.56 101.077 14.52 100.373 13.208C99.6852 11.88 99.3412 10.424 99.3412 8.84C99.3412 7.32 99.6452 5.944 100.253 4.712C100.861 3.464 101.725 2.48 102.845 1.76C103.981 1.04 105.293 0.68 106.781 0.68C108.157 0.68 109.341 0.864 110.333 1.232C111.341 1.584 112.077 2.04 112.541 2.6C112.797 2.92 112.957 3.344 113.021 3.872C113.101 4.4 113.141 5.056 113.141 5.84H112.661C112.357 4.432 111.781 3.384 110.933 2.696C110.085 1.992 108.941 1.64 107.501 1.64C106.205 1.64 105.125 1.984 104.261 2.672C103.397 3.344 102.757 4.224 102.341 5.312C101.941 6.4 101.741 7.576 101.741 8.84C101.741 11.544 102.269 13.504 103.325 14.72C104.381 15.92 105.773 16.52 107.501 16.52C108.317 16.52 109.013 16.448 109.589 16.304C110.165 16.16 110.709 15.952 111.221 15.68V11.504C111.221 10.96 111.309 10.488 111.485 10.088C111.661 9.688 112.037 9.36 112.613 9.104C113.205 8.832 114.061 8.696 115.181 8.696V9.176C114.461 9.176 113.981 9.36 113.741 9.728C113.501 10.096 113.381 10.672 113.381 11.456V15.968C112.517 16.496 111.613 16.88 110.669 17.12C109.725 17.36 108.669 17.48 107.501 17.48ZM128.663 17.24C127.815 17.24 127.071 16.992 126.431 16.496C125.807 15.984 125.111 15.072 124.343 13.76L121.943 9.68H120.263V17H118.103V4.04C118.103 3.224 117.991 2.624 117.767 2.24C117.543 1.84 117.095 1.64 116.423 1.64H115.943V1.16H122.183C123.703 1.16 125.079 1.464 126.311 2.072C127.559 2.664 128.183 3.8 128.183 5.48C128.183 7.608 126.903 8.968 124.343 9.56L126.863 13.76C127.455 14.752 127.983 15.448 128.447 15.848C128.927 16.232 129.479 16.456 130.103 16.52V17C129.959 17.064 129.751 17.12 129.479 17.168C129.223 17.216 128.951 17.24 128.663 17.24ZM122.063 8.84C122.559 8.84 123.095 8.72 123.671 8.48C124.263 8.24 124.759 7.864 125.159 7.352C125.575 6.84 125.783 6.216 125.783 5.48C125.783 4.696 125.575 4.048 125.159 3.536C124.759 3.008 124.263 2.624 123.671 2.384C123.095 2.128 122.559 2 122.063 2C121.503 2 120.903 2.08 120.263 2.24V8.6C120.903 8.76 121.503 8.84 122.063 8.84ZM144.76 17.12C143.992 17.12 143.232 16.912 142.48 16.496C141.728 16.064 141.128 15.232 140.68 14L140.08 12.44H133.36L131.44 17H130.36L137.08 1.16H137.8L143.08 14C143.48 14.928 143.856 15.568 144.208 15.92C144.56 16.256 145.064 16.456 145.72 16.52V17C145.432 17.08 145.112 17.12 144.76 17.12ZM139.6 11.48L136.72 4.52L133.72 11.48H139.6ZM147.61 4.04C147.61 3.224 147.498 2.624 147.274 2.24C147.05 1.84 146.602 1.64 145.93 1.64H145.45V1.16H155.026C156.386 1.16 157.066 1.8 157.066 3.08V4.88H156.586C156.586 3.04 155.586 2.12 153.586 2.12H149.77V8.48H155.194V9.44H149.77V17H147.61V4.04ZM161.347 4.28C160.963 3.72 160.627 3.28 160.339 2.96C160.051 2.624 159.675 2.328 159.211 2.072C158.747 1.816 158.179 1.672 157.507 1.64V1.16H160.387C161.091 1.16 161.683 1.392 162.163 1.856C162.643 2.304 163.171 2.952 163.747 3.8L166.147 7.4L170.947 1.16H172.147L166.747 8.24L170.587 13.88C171.083 14.616 171.611 15.232 172.171 15.728C172.747 16.208 173.379 16.472 174.067 16.52V17H171.547C170.859 17 170.251 16.76 169.723 16.28C169.195 15.784 168.683 15.144 168.187 14.36L165.307 10.04L159.907 17H158.707L164.707 9.2L161.347 4.28Z" fill="white"/>
</svg>
