<svg width="821" height="486" viewBox="0 0 821 486" fill="none" xmlns="http://www.w3.org/2000/svg">
<path d="M236.204 157.967L214.687 120.855V157.967H193.32L193.219 72.4993H223.772C241.154 72.4993 253.586 84.961 253.586 100.284C253.586 110.943 247.545 119.845 239.651 123.663L261.231 157.967H236.204ZM214.686 111.672L224.329 111.727C229.351 111.782 233.931 108.254 233.931 102.796C233.931 97.2826 229.296 93.8649 224.329 93.8649H214.686V111.672Z" fill="url(#paint0_radial_15_1535)"/>
<path d="M322.65 147.283H288.431L283.767 157.967H259.118L299.974 68.9374H311.05L351.961 157.967H327.244L322.65 147.283ZM314.385 133.04L305.532 112.563L296.638 133.04H314.385Z" fill="url(#paint1_radial_15_1535)"/>
<path d="M360.695 72.4993H391.697C409.376 72.4993 424.129 85.8157 424.129 102.585C424.129 119.142 409.697 133.038 391.697 133.038H382.062V157.967H360.695V72.4993ZM401.407 102.695C401.407 97.6658 397.208 93.866 391.348 93.866H382.062V111.672L391.348 111.724C397.26 111.775 401.407 107.776 401.407 102.695Z" fill="url(#paint2_radial_15_1535)"/>
<path d="M499.581 72.4993V157.967H478.214V125.917H449.725V157.967H428.358V72.4993H449.725V104.55H478.214V72.4993H499.581Z" fill="url(#paint3_radial_15_1535)"/>
<path d="M510.264 72.4993H531.63V157.967H510.264V72.4993Z" fill="url(#paint4_radial_15_1535)"/>
<path d="M535.966 115.384C535.966 89.815 556.659 70.1451 583.567 70.1451C594.72 70.2999 606.668 75.1839 615.521 83.2227L602.335 100.161C597.022 95.3376 589.998 92.1765 583.621 92.1765C570.329 92.1765 559.228 102.308 559.228 115.546C559.228 128.947 570.812 138.816 583.136 138.816C590.374 138.816 596.86 135.384 602.442 130.394L615.52 147.817C607.259 155.324 596.268 160.525 583.136 160.525C558.744 160.524 535.966 142.508 535.966 115.384Z" fill="url(#paint5_radial_15_1535)"/>
<path d="M620.766 143.961L634.65 130.338C638.242 135.646 644.942 138.861 652.181 138.861C657.065 138.861 661.827 137.099 661.827 133.561C661.827 129.108 652.988 125.193 644.512 121.445C633.573 116.723 624.196 109.545 624.196 96.5142C624.196 81.5601 638.403 70.8907 654.804 70.8907C667.988 70.8907 678.282 77.106 681.658 85.6361L668.419 98.3907C665.849 93.837 659.203 91.8524 655.073 91.8524C650.351 91.8524 646.974 94.2607 646.974 97.2141C646.974 101.176 653.096 102.468 662.419 106.377C675.927 112.061 684.874 120.315 684.874 133.076C684.874 149.531 669.55 159.769 652.235 159.769C638.027 159.77 625.111 153.501 620.766 143.961Z" fill="url(#paint6_radial_15_1535)"/>
<path d="M159.323 201.106V215.351H187.813V233.156H159.323V243.84H194.935V265.207H137.956V179.739H191.373V201.106H159.323Z" fill="url(#paint7_radial_15_1535)"/>
<path d="M201.056 251.35L214.94 237.728C218.532 243.035 225.233 246.25 232.471 246.25C237.355 246.25 242.117 244.488 242.117 240.949C242.117 236.496 233.278 232.581 224.802 228.833C213.863 224.111 204.486 216.933 204.486 203.902C204.486 188.948 218.693 178.279 235.094 178.279C248.279 178.279 258.572 184.494 261.948 193.024L248.709 205.779C246.139 201.225 239.493 199.241 235.363 199.241C230.641 199.241 227.264 201.649 227.264 204.602C227.264 208.564 233.386 209.856 242.709 213.765C256.217 219.449 265.164 227.703 265.164 240.464C265.164 256.919 249.84 267.157 232.525 267.157C218.317 267.158 205.401 260.889 201.056 251.35Z" fill="url(#paint8_radial_15_1535)"/>
<path d="M269.72 179.738H291.087V265.206H269.72V179.738Z" fill="url(#paint9_radial_15_1535)"/>
<path d="M398.517 224.113C398.517 251.467 377.866 269.16 352.3 269.16C323.721 269.16 302.119 247.838 302.119 222.159C302.119 196.479 323.777 174.884 351.684 174.884C363.13 175.045 376.354 179.906 383.78 186.771L370.554 204.914C365.525 200.221 358.324 197.208 351.684 197.208C338.291 197.208 326.509 208.206 326.509 222.103C326.509 234.718 336.61 246.997 353.253 246.997C364.139 246.997 371.886 241.751 372.222 233.156H351.628V215.35H397.789C398.236 218.362 398.517 221.269 398.517 224.113Z" fill="url(#paint10_radial_15_1535)"/>
<path d="M479.829 179.738V265.206H472.802L429.973 222.166V265.206H408.606V176.176H414.615L458.463 221.595V179.737H479.829V179.738Z" fill="url(#paint11_radial_15_1535)"/>
<path d="M515.404 186.861H536.771V272.329H515.404V186.861Z" fill="url(#paint12_radial_15_1535)"/>
<path d="M553.625 246.726L567.444 233.168C571.019 238.45 577.687 241.651 584.892 241.651C589.753 241.651 594.493 239.897 594.493 236.374C594.493 231.942 585.695 228.045 577.259 224.316C566.373 219.616 557.039 212.472 557.039 199.502C557.039 184.619 571.18 173.999 587.504 173.999C600.627 173.999 610.871 180.185 614.232 188.676L601.056 201.37C598.498 196.837 591.883 194.862 587.772 194.862C583.085 194.862 579.71 197.259 579.71 200.199C579.71 204.143 585.803 205.428 595.083 209.318C608.527 214.976 617.432 223.191 617.432 235.893C617.432 252.269 602.18 262.46 584.945 262.46C570.805 262.46 557.95 256.22 553.625 246.726Z" fill="url(#paint13_radial_15_1535)"/>
<path d="M168.39 338.704L143.401 290.135H167.785L179.105 314.899L190.363 290.135H214.798L189.758 338.704V375.603H168.391L168.39 338.704Z" fill="url(#paint14_radial_15_1535)"/>
<path d="M207.252 360.492L221.137 346.87C224.729 352.177 231.429 355.392 238.667 355.392C243.551 355.392 248.314 353.63 248.314 350.092C248.314 345.639 239.474 341.724 230.998 337.976C220.06 333.254 210.683 326.076 210.683 313.045C210.683 298.091 224.89 287.422 241.291 287.422C254.476 287.422 264.769 293.638 268.145 302.167L254.906 314.922C252.336 310.368 245.69 308.384 241.56 308.384C236.851 308.384 233.461 310.792 233.461 313.745C233.461 317.707 239.582 318.999 248.906 322.908C262.413 328.592 271.361 336.846 271.361 349.607C271.361 366.062 256.037 376.3 238.721 376.3C224.514 376.3 211.598 370.031 207.252 360.492Z" fill="url(#paint15_radial_15_1535)"/>
<path d="M335.766 311.502H314.399V375.603H293.033V311.502H271.666V290.135H335.767V311.502H335.766Z" fill="url(#paint16_radial_15_1535)"/>
<path d="M367.817 311.502V322.186H396.307V343.553H367.817V354.237H399.867V375.603H342.888V290.135H399.867V311.502H367.817Z" fill="url(#paint17_radial_15_1535)"/>
<path d="M506.703 290.135V375.603H481.774V340.869L459.492 375.603H459.33L435.479 340.869V375.603H414.112V290.135H423.325L460.401 339.934L497.492 290.135H506.703Z" fill="url(#paint18_radial_15_1535)"/>
<path d="M577.056 364.919H542.837L538.173 375.603H513.524L554.38 286.573H565.456L606.367 375.603H581.65L577.056 364.919ZM568.791 347.114L559.938 326.637L551.044 347.114H568.791Z" fill="url(#paint19_radial_15_1535)"/>
<path d="M694.055 255.293H659.836L655.172 265.977H630.523L671.379 176.948H682.455L723.366 265.977H698.649L694.055 255.293ZM685.79 237.488L676.937 217.011L668.043 237.488H685.79Z" fill="url(#paint20_radial_15_1535)"/>
<path d="M656.273 311.502H634.906V375.603H613.54V311.502H592.173V290.135H656.274L656.273 311.502Z" fill="url(#paint21_radial_15_1535)"/>
<path d="M674.079 290.135H695.445V375.603H674.079V290.135Z" fill="url(#paint22_radial_15_1535)"/>
<path d="M713.204 331.915C713.204 306.346 733.896 286.676 760.804 286.676C771.958 286.831 783.905 291.715 792.758 299.754L779.574 316.692C774.26 311.869 767.237 308.708 760.859 308.708C747.567 308.708 736.467 318.839 736.467 332.077C736.467 345.478 748.051 355.347 760.374 355.347C767.613 355.347 774.098 351.915 779.681 346.925L792.758 364.347C784.497 371.854 773.506 377.055 760.374 377.055C735.982 377.054 713.204 359.038 713.204 331.915Z" fill="url(#paint23_radial_15_1535)"/>
<path d="M181.268 87.523C181.268 82.6339 180.786 77.6398 180.016 72.462H100.671V102.29H136.821C136.232 117.38 122.632 126.587 103.524 126.587C74.3063 126.587 56.5763 105.032 56.5763 82.8883C56.5763 58.4923 77.2587 39.1891 100.769 39.1891C112.426 39.1891 125.066 44.477 133.895 52.7153L157.109 20.8682C144.075 8.81669 120.86 0.281428 100.769 0C51.7817 0 13.7619 37.9086 13.7619 82.9869C13.7619 104.771 22.6783 124.725 37.4974 139.576L57.4424 139.538C80.0677 139.454 96.2005 148.744 103.195 164.895C146.5 164.266 181.268 134.046 181.268 87.523Z" fill="url(#paint24_radial_15_1535)"/>
<path d="M36.9127 139.576L26.1001 139.595V229.063H31.4919C44.3296 224.602 44.8997 218.021 53.5274 214.773C68.5344 209.13 83.0264 209.54 93.8993 214.44C100.652 206.925 104.346 196.751 104.346 184.411C104.346 176.981 102.997 170.348 100.499 164.582C100.045 164.59 99.6047 164.642 99.1478 164.642C74.0799 164.642 52.2313 154.931 36.9127 139.576ZM57.8485 206.691H52.1992V161.948H57.6262C73.6032 161.948 83.3328 170.465 83.3328 184.454C83.3328 198.279 73.6583 206.691 57.8485 206.691Z" fill="url(#paint25_radial_15_1535)"/>
<path d="M32.7245 228.572C20.7425 240.859 15.4276 257.563 21.4352 273.534C29.2726 294.374 48.5862 300.212 68.9217 301.188C84.7305 302.083 101.223 303.026 103.9 310.152C106.03 315.81 99.4727 321.492 91.6613 324.429C80.0843 328.785 67.4346 327.671 58.4975 321.341L49.6797 340.308C70.6591 341.361 87.5676 348.036 99.3575 359.399C101.015 358.894 102.679 358.453 104.322 357.834C132.016 347.42 150.367 321.829 140.47 295.512C132.794 275.105 113.522 267.284 88.4991 266.318C71.2365 265.672 60.6689 267.29 58.2856 260.953C56.5088 256.227 60.4623 250.345 68.0151 247.505C74.6209 245.021 86.444 244.199 93.2938 249.938L106.795 221.576C103.832 218.307 100.041 215.744 95.7425 213.806C59.3885 197.739 68.1221 210.676 57.9585 210.732L32.7245 228.572Z" fill="url(#paint26_radial_15_1535)"/>
<path d="M46.1978 352.375L51.4286 341.125C49.3184 341.018 47.2103 340.91 45.0191 340.92L0 341.005V478.878H45.0191C91.9075 478.878 120.582 452.855 120.582 410.069C120.582 389.127 113.773 372.223 101.449 360.348C80.0616 366.869 58.0479 364.18 46.1978 352.375ZM42.0304 441.592H33.5564V374.477H41.697C65.661 374.477 80.2547 387.251 80.2547 408.238C80.2547 428.975 65.744 441.592 42.0304 441.592Z" fill="url(#paint27_radial_15_1535)"/>
<path d="M183.215 486L158.11 447.342V486H133.182L133.064 396.97H168.709C188.988 396.97 203.492 409.951 203.492 425.911C203.492 437.014 196.445 446.287 187.234 450.265L212.41 485.999L183.215 486ZM158.112 436.144L167.755 436.199C172.777 436.254 177.357 432.726 177.357 427.268C177.357 421.754 172.722 418.337 167.755 418.337H158.112V436.144Z" fill="url(#paint28_radial_15_1535)"/>
<path d="M232.896 418.338V432.583H261.386V450.388H232.896V464.633H264.947V486H207.968V396.97H264.947V418.337H232.896V418.338Z" fill="url(#paint29_radial_15_1535)"/>
<path d="M335.501 475.316H301.282L296.619 486H271.969L312.825 396.97H323.902L364.812 486H340.093L335.501 475.316ZM327.331 457.51L318.383 436.814L309.395 457.51H327.331Z" fill="url(#paint30_radial_15_1535)"/>
<path d="M460.812 396.97V482.438H435.883V449.456L413.518 485.999H413.355L389.587 449.456V482.438H368.221V396.97H377.433L414.51 446.768L451.6 396.97H460.812Z" fill="url(#paint31_radial_15_1535)"/>
<path d="M553.844 461.071V486H496.864V396.97H521.793V461.071H553.844Z" fill="url(#paint32_radial_15_1535)"/>
<path d="M627.063 475.316H592.844L588.18 486H563.531L604.387 396.97H615.463L656.374 486H631.656L627.063 475.316ZM618.892 457.51L609.945 436.814L600.957 457.51H618.892Z" fill="url(#paint33_radial_15_1535)"/>
<path d="M735.463 396.97V486H727.933L682.045 442.501V486H657.116V396.97H665.646L710.535 439.218V396.97H735.463Z" fill="url(#paint34_radial_15_1535)"/>
<path d="M820.451 441.568C820.451 469.197 801.934 486 771.657 486H742.585V396.97L771.657 396.915C801.934 396.804 820.451 413.717 820.451 441.568ZM793.702 439.834C793.702 426.471 784.396 418.338 769.137 418.338H763.954V461.072H769.35C784.449 461.071 793.702 453.037 793.702 439.834Z" fill="url(#paint35_radial_15_1535)"/>
<defs>
<radialGradient id="paint0_radial_15_1535" cx="0" cy="0" r="1" gradientUnits="userSpaceOnUse" gradientTransform="translate(197.613 77.9509) rotate(50.2516) scale(98.0101 189.617)">
<stop stop-color="#CC51D6"/>
<stop offset="0.461458" stop-color="#5A68E8"/>
<stop offset="1" stop-color="#E18CFF"/>
</radialGradient>
<radialGradient id="paint1_radial_15_1535" cx="0" cy="0" r="1" gradientUnits="userSpaceOnUse" gradientTransform="translate(265.116 74.6162) rotate(42.538) scale(116.105 227.611)">
<stop stop-color="#CC51D6"/>
<stop offset="0.461458" stop-color="#5A68E8"/>
<stop offset="1" stop-color="#E18CFF"/>
</radialGradient>
<radialGradient id="paint2_radial_15_1535" cx="0" cy="0" r="1" gradientUnits="userSpaceOnUse" gradientTransform="translate(364.793 77.9509) rotate(52.2008) scale(95.3675 181.752)">
<stop stop-color="#CC51D6"/>
<stop offset="0.461458" stop-color="#5A68E8"/>
<stop offset="1" stop-color="#E18CFF"/>
</radialGradient>
<radialGradient id="paint3_radial_15_1535" cx="0" cy="0" r="1" gradientUnits="userSpaceOnUse" gradientTransform="translate(432.959 77.9509) rotate(48.9471) scale(99.9278 194.759)">
<stop stop-color="#CC51D6"/>
<stop offset="0.461458" stop-color="#5A68E8"/>
<stop offset="1" stop-color="#E18CFF"/>
</radialGradient>
<radialGradient id="paint4_radial_15_1535" cx="0" cy="0" r="1" gradientUnits="userSpaceOnUse" gradientTransform="translate(511.644 77.9509) rotate(75.3576) scale(77.8855 74.9625)">
<stop stop-color="#CC51D6"/>
<stop offset="0.461458" stop-color="#5A68E8"/>
<stop offset="1" stop-color="#E18CFF"/>
</radialGradient>
<radialGradient id="paint5_radial_15_1535" cx="0" cy="0" r="1" gradientUnits="userSpaceOnUse" gradientTransform="translate(541.105 75.9101) rotate(47.3885) scale(108.276 212.308)">
<stop stop-color="#CC51D6"/>
<stop offset="0.461458" stop-color="#5A68E8"/>
<stop offset="1" stop-color="#E18CFF"/>
</radialGradient>
<radialGradient id="paint6_radial_15_1535" cx="0" cy="0" r="1" gradientUnits="userSpaceOnUse" gradientTransform="translate(624.907 76.5599) rotate(52.9898) scale(98.134 185.631)">
<stop stop-color="#CC51D6"/>
<stop offset="0.461458" stop-color="#5A68E8"/>
<stop offset="1" stop-color="#E18CFF"/>
</radialGradient>
<radialGradient id="paint7_radial_15_1535" cx="0" cy="0" r="1" gradientUnits="userSpaceOnUse" gradientTransform="translate(141.636 185.191) rotate(55.1336) scale(91.8428 169.525)">
<stop stop-color="#CC51D6"/>
<stop offset="0.461458" stop-color="#5A68E8"/>
<stop offset="1" stop-color="#E18CFF"/>
</radialGradient>
<radialGradient id="paint8_radial_15_1535" cx="0" cy="0" r="1" gradientUnits="userSpaceOnUse" gradientTransform="translate(205.197 183.948) rotate(52.9899) scale(98.134 185.631)">
<stop stop-color="#CC51D6"/>
<stop offset="0.461458" stop-color="#5A68E8"/>
<stop offset="1" stop-color="#E18CFF"/>
</radialGradient>
<radialGradient id="paint9_radial_15_1535" cx="0" cy="0" r="1" gradientUnits="userSpaceOnUse" gradientTransform="translate(271.1 185.19) rotate(75.3576) scale(77.8855 74.9625)">
<stop stop-color="#CC51D6"/>
<stop offset="0.461458" stop-color="#5A68E8"/>
<stop offset="1" stop-color="#E18CFF"/>
</radialGradient>
<radialGradient id="paint10_radial_15_1535" cx="0" cy="0" r="1" gradientUnits="userSpaceOnUse" gradientTransform="translate(308.346 180.898) rotate(43.1003) scale(121.652 238.842)">
<stop stop-color="#CC51D6"/>
<stop offset="0.461458" stop-color="#5A68E8"/>
<stop offset="1" stop-color="#E18CFF"/>
</radialGradient>
<radialGradient id="paint11_radial_15_1535" cx="0" cy="0" r="1" gradientUnits="userSpaceOnUse" gradientTransform="translate(413.207 181.855) rotate(50.1022) scale(102.317 198.138)">
<stop stop-color="#CC51D6"/>
<stop offset="0.461458" stop-color="#5A68E8"/>
<stop offset="1" stop-color="#E18CFF"/>
</radialGradient>
<radialGradient id="paint12_radial_15_1535" cx="0" cy="0" r="1" gradientUnits="userSpaceOnUse" gradientTransform="translate(516.785 192.312) rotate(75.3576) scale(77.8855 74.9625)">
<stop stop-color="#CC51D6"/>
<stop offset="0.461458" stop-color="#5A68E8"/>
<stop offset="1" stop-color="#E18CFF"/>
</radialGradient>
<radialGradient id="paint13_radial_15_1535" cx="0" cy="0" r="1" gradientUnits="userSpaceOnUse" gradientTransform="translate(557.746 179.642) rotate(52.9898) scale(97.6731 184.759)">
<stop stop-color="#CC51D6"/>
<stop offset="0.461458" stop-color="#5A68E8"/>
<stop offset="1" stop-color="#E18CFF"/>
</radialGradient>
<radialGradient id="paint14_radial_15_1535" cx="0" cy="0" r="1" gradientUnits="userSpaceOnUse" gradientTransform="translate(148.013 295.587) rotate(48.8781) scale(100.033 195.028)">
<stop stop-color="#CC51D6"/>
<stop offset="0.461458" stop-color="#5A68E8"/>
<stop offset="1" stop-color="#E18CFF"/>
</radialGradient>
<radialGradient id="paint15_radial_15_1535" cx="0" cy="0" r="1" gradientUnits="userSpaceOnUse" gradientTransform="translate(211.394 293.091) rotate(52.9899) scale(98.134 185.631)">
<stop stop-color="#CC51D6"/>
<stop offset="0.461458" stop-color="#5A68E8"/>
<stop offset="1" stop-color="#E18CFF"/>
</radialGradient>
<radialGradient id="paint16_radial_15_1535" cx="0" cy="0" r="1" gradientUnits="userSpaceOnUse" gradientTransform="translate(275.807 295.587) rotate(51.9099) scale(95.7459 182.94)">
<stop stop-color="#CC51D6"/>
<stop offset="0.461458" stop-color="#5A68E8"/>
<stop offset="1" stop-color="#E18CFF"/>
</radialGradient>
<radialGradient id="paint17_radial_15_1535" cx="0" cy="0" r="1" gradientUnits="userSpaceOnUse" gradientTransform="translate(346.569 295.587) rotate(55.1337) scale(91.8429 169.525)">
<stop stop-color="#CC51D6"/>
<stop offset="0.461458" stop-color="#5A68E8"/>
<stop offset="1" stop-color="#E18CFF"/>
</radialGradient>
<radialGradient id="paint18_radial_15_1535" cx="0" cy="0" r="1" gradientUnits="userSpaceOnUse" gradientTransform="translate(420.094 295.587) rotate(41.4524) scale(113.831 222.264)">
<stop stop-color="#CC51D6"/>
<stop offset="0.461458" stop-color="#5A68E8"/>
<stop offset="1" stop-color="#E18CFF"/>
</radialGradient>
<radialGradient id="paint19_radial_15_1535" cx="0" cy="0" r="1" gradientUnits="userSpaceOnUse" gradientTransform="translate(519.521 292.252) rotate(42.538) scale(116.105 227.611)">
<stop stop-color="#CC51D6"/>
<stop offset="0.461458" stop-color="#5A68E8"/>
<stop offset="1" stop-color="#E18CFF"/>
</radialGradient>
<radialGradient id="paint20_radial_15_1535" cx="0" cy="0" r="1" gradientUnits="userSpaceOnUse" gradientTransform="translate(636.52 182.626) rotate(42.538) scale(116.105 227.611)">
<stop stop-color="#CC51D6"/>
<stop offset="0.461458" stop-color="#5A68E8"/>
<stop offset="1" stop-color="#E18CFF"/>
</radialGradient>
<radialGradient id="paint21_radial_15_1535" cx="0" cy="0" r="1" gradientUnits="userSpaceOnUse" gradientTransform="translate(596.314 295.587) rotate(51.9099) scale(95.7459 182.94)">
<stop stop-color="#CC51D6"/>
<stop offset="0.461458" stop-color="#5A68E8"/>
<stop offset="1" stop-color="#E18CFF"/>
</radialGradient>
<radialGradient id="paint22_radial_15_1535" cx="0" cy="0" r="1" gradientUnits="userSpaceOnUse" gradientTransform="translate(675.459 295.587) rotate(75.3576) scale(77.8855 74.9625)">
<stop stop-color="#CC51D6"/>
<stop offset="0.461458" stop-color="#5A68E8"/>
<stop offset="1" stop-color="#E18CFF"/>
</radialGradient>
<radialGradient id="paint23_radial_15_1535" cx="0" cy="0" r="1" gradientUnits="userSpaceOnUse" gradientTransform="translate(718.343 292.441) rotate(47.3882) scale(108.275 212.307)">
<stop stop-color="#CC51D6"/>
<stop offset="0.461458" stop-color="#5A68E8"/>
<stop offset="1" stop-color="#E18CFF"/>
</radialGradient>
<radialGradient id="paint24_radial_15_1535" cx="0" cy="0" r="1" gradientUnits="userSpaceOnUse" gradientTransform="translate(24.5825 10.518) rotate(43.2875) scale(212.038 416.469)">
<stop stop-color="#CC51D6"/>
<stop offset="0.461458" stop-color="#5A68E8"/>
<stop offset="1" stop-color="#E18CFF"/>
</radialGradient>
<radialGradient id="paint25_radial_15_1535" cx="0" cy="0" r="1" gradientUnits="userSpaceOnUse" gradientTransform="translate(31.1547 145.284) rotate(47.5784) scale(106.881 209.451)">
<stop stop-color="#CC51D6"/>
<stop offset="0.461458" stop-color="#5A68E8"/>
<stop offset="1" stop-color="#E18CFF"/>
</radialGradient>
<radialGradient id="paint26_radial_15_1535" cx="0" cy="0" r="1" gradientUnits="userSpaceOnUse" gradientTransform="translate(26.9748 215.556) rotate(49.8009) scale(177.356 344.083)">
<stop stop-color="#CC51D6"/>
<stop offset="0.461458" stop-color="#5A68E8"/>
<stop offset="1" stop-color="#E18CFF"/>
</radialGradient>
<radialGradient id="paint27_radial_15_1535" cx="0" cy="0" r="1" gradientUnits="userSpaceOnUse" gradientTransform="translate(7.78943 349.72) rotate(47.5896) scale(164.744 322.834)">
<stop stop-color="#CC51D6"/>
<stop offset="0.461458" stop-color="#5A68E8"/>
<stop offset="1" stop-color="#E18CFF"/>
</radialGradient>
<radialGradient id="paint28_radial_15_1535" cx="0" cy="0" r="1" gradientUnits="userSpaceOnUse" gradientTransform="translate(138.19 402.649) rotate(47.0337) scale(107.272 210.54)">
<stop stop-color="#CC51D6"/>
<stop offset="0.461458" stop-color="#5A68E8"/>
<stop offset="1" stop-color="#E18CFF"/>
</radialGradient>
<radialGradient id="paint29_radial_15_1535" cx="0" cy="0" r="1" gradientUnits="userSpaceOnUse" gradientTransform="translate(211.649 402.649) rotate(56.223) scale(94.4367 171.74)">
<stop stop-color="#CC51D6"/>
<stop offset="0.461458" stop-color="#5A68E8"/>
<stop offset="1" stop-color="#E18CFF"/>
</radialGradient>
<radialGradient id="paint30_radial_15_1535" cx="0" cy="0" r="1" gradientUnits="userSpaceOnUse" gradientTransform="translate(277.967 402.649) rotate(42.538) scale(116.105 227.611)">
<stop stop-color="#CC51D6"/>
<stop offset="0.461458" stop-color="#5A68E8"/>
<stop offset="1" stop-color="#E18CFF"/>
</radialGradient>
<radialGradient id="paint31_radial_15_1535" cx="0" cy="0" r="1" gradientUnits="userSpaceOnUse" gradientTransform="translate(374.202 402.649) rotate(42.6154) scale(115.934 227.326)">
<stop stop-color="#CC51D6"/>
<stop offset="0.461458" stop-color="#5A68E8"/>
<stop offset="1" stop-color="#E18CFF"/>
</radialGradient>
<radialGradient id="paint32_radial_15_1535" cx="0" cy="0" r="1" gradientUnits="userSpaceOnUse" gradientTransform="translate(500.545 402.649) rotate(56.2229) scale(94.4367 171.74)">
<stop stop-color="#CC51D6"/>
<stop offset="0.461458" stop-color="#5A68E8"/>
<stop offset="1" stop-color="#E18CFF"/>
</radialGradient>
<radialGradient id="paint33_radial_15_1535" cx="0" cy="0" r="1" gradientUnits="userSpaceOnUse" gradientTransform="translate(569.528 402.649) rotate(42.538) scale(116.105 227.611)">
<stop stop-color="#CC51D6"/>
<stop offset="0.461458" stop-color="#5A68E8"/>
<stop offset="1" stop-color="#E18CFF"/>
</radialGradient>
<radialGradient id="paint34_radial_15_1535" cx="0" cy="0" r="1" gradientUnits="userSpaceOnUse" gradientTransform="translate(662.177 402.649) rotate(47.3956) scale(106.646 209.108)">
<stop stop-color="#CC51D6"/>
<stop offset="0.461458" stop-color="#5A68E8"/>
<stop offset="1" stop-color="#E18CFF"/>
</radialGradient>
<radialGradient id="paint35_radial_15_1535" cx="0" cy="0" r="1" gradientUnits="userSpaceOnUse" gradientTransform="translate(747.615 402.597) rotate(47.5894) scale(106.383 208.468)">
<stop stop-color="#CC51D6"/>
<stop offset="0.461458" stop-color="#5A68E8"/>
<stop offset="1" stop-color="#E18CFF"/>
</radialGradient>
</defs>
</svg>
